<?xml version="1.0" encoding="UTF-8" standalone="no"?>
<svg
   width="16"
   height="16"
   viewBox="0 0 16 16"
   fill="none"
   version="1.1"
   id="svg2"
   sodipodi:docname="hide-window-symbolic.svg"
   xml:space="preserve"
   inkscape:version="1.4.3 (0d15f75042, 2025-12-25)"
   xmlns:inkscape="http://www.inkscape.org/namespaces/inkscape"
   xmlns:sodipodi="http://sodipodi.sourceforge.net/DTD/sodipodi-0.dtd"
   xmlns="http://www.w3.org/2000/svg"
   xmlns:svg="http://www.w3.org/2000/svg"><defs
     id="defs2" /><sodipodi:namedview
     id="namedview2"
     pagecolor="#ffffff"
     bordercolor="#000000"
     borderopacity="0.25"
     inkscape:showpageshadow="2"
     inkscape:pageopacity="0.0"
     inkscape:pagecheckerboard="0"
     inkscape:deskcolor="#d1d1d1"
     inkscape:zoom="45.254834"
     inkscape:cx="3.5244854"
     inkscape:cy="8.6178639"
     inkscape:window-width="2560"
     inkscape:window-height="1371"
     inkscape:window-x="0"
     inkscape:window-y="0"
     inkscape:window-maximized="1"
     inkscape:current-layer="svg2" /><path
     fill="currentColor"
     d="M3 3v10h10V3H3zm1 1h8v8H4V4z"
     id="path1" /><g
     style="fill:none"
     id="g2"
     transform="matrix(-50,0,0,-50,432.32803,380.7502)"><path
       d="M 8.535339,7.4211389 8.5671,7.3893779 8.552727,7.3750039 8.520966,7.4067649 8.506555,7.3923539 l -0.00762,0.00762 v 0.043196 h 0.043196 l 0.00762,-0.00762 z"
       fill="#000000"
       id="path1-3"
       style="stroke-width:0.00508184" /></g><g
     style="fill:none"
     id="g2-7"
     transform="matrix(50,0,0,50,-416.355,-364.77722)"><path
       d="M 8.535339,7.4211389 8.5671,7.3893779 8.552727,7.3750039 8.520966,7.4067649 8.506555,7.3923539 l -0.00762,0.00762 v 0.043196 h 0.043196 l 0.00762,-0.00762 z"
       fill="#000000"
       id="path1-3-5"
       style="stroke-width:0.00508184" /></g><g
     style="fill:none"
     id="g2-5"
     transform="matrix(0,-50,50,0,-364.7502,432.32803)"><path
       d="M 8.535339,7.4211389 8.5671,7.3893779 8.552727,7.3750039 8.520966,7.4067649 8.506555,7.3923539 l -0.00762,0.00762 v 0.043196 h 0.043196 l 0.00762,-0.00762 z"
       fill="#000000"
       id="path1-3-6"
       style="stroke-width:0.00508184" /></g><g
     style="fill:none"
     id="g2-7-2"
     transform="matrix(0,50,-50,0,380.73296,-416.355)"><path
       d="M 8.535339,7.4211389 8.5671,7.3893779 8.552727,7.3750039 8.520966,7.4067649 8.506555,7.3923539 l -0.00762,0.00762 v 0.043196 h 0.043196 l 0.00762,-0.00762 z"
       fill="#000000"
       id="path1-3-5-9"
       style="stroke-width:0.00508184" /></g></svg>
