<?xml version="1.0" encoding="UTF-8" standalone="no"?>
<svg
   width="112"
   height="112"
   viewBox="0 0 112 112"
   fill="none"
   version="1.1"
   id="svg5"
   sodipodi:docname="element-symbolic.svg"
   inkscape:version="1.4.4 (dcaf3e7d9e, 2026-05-05)"
   inkscape:export-filename="element.png"
   inkscape:export-xdpi="96"
   inkscape:export-ydpi="96"
   xmlns:inkscape="http://www.inkscape.org/namespaces/inkscape"
   xmlns:sodipodi="http://sodipodi.sourceforge.net/DTD/sodipodi-0.dtd"
   xmlns="http://www.w3.org/2000/svg"
   xmlns:svg="http://www.w3.org/2000/svg">
  <defs
     id="defs5" />
  <sodipodi:namedview
     id="namedview5"
     pagecolor="#ffffff"
     bordercolor="#000000"
     borderopacity="0.25"
     inkscape:showpageshadow="2"
     inkscape:pageopacity="0.0"
     inkscape:pagecheckerboard="0"
     inkscape:deskcolor="#d1d1d1"
     inkscape:zoom="6.7678571"
     inkscape:cx="56"
     inkscape:cy="56"
     inkscape:window-width="1728"
     inkscape:window-height="1011"
     inkscape:window-x="0"
     inkscape:window-y="0"
     inkscape:window-maximized="1"
     inkscape:current-layer="svg5" />
  <path
     id="path1"
     style="fill:#000000;fill-opacity:1"
     d="M 56 0 C 25.0721 0 0 25.0721 0 56 C 0 86.9279 25.0721 112 56 112 C 86.9279 112 112 86.9279 112 56 C 112 25.0721 86.9279 0 56 0 z M 49.863281 22 C 65.215881 22 77.660156 34.419634 77.660156 49.740234 C 77.660156 52.000734 75.825647 53.833984 73.560547 53.833984 C 71.295347 53.833984 69.458984 52.000734 69.458984 49.740234 C 69.458984 38.940434 60.685581 30.185547 49.863281 30.185547 C 47.598181 30.185547 45.761719 28.35415 45.761719 26.09375 C 45.761719 23.83335 47.598181 22 49.863281 22 z M 49.798828 34.519531 C 52.063928 34.519531 53.900391 36.350928 53.900391 38.611328 C 53.900391 40.871828 52.063928 42.705078 49.798828 42.705078 C 38.976628 42.705078 30.203125 51.459966 30.203125 62.259766 C 30.203125 64.520166 28.366662 66.351562 26.101562 66.351562 C 23.836462 66.351562 22 64.520166 22 62.259766 C 22 46.939066 34.446328 34.519531 49.798828 34.519531 z M 85.898438 45.648438 C 88.163638 45.648438 90 47.479734 90 49.740234 C 90 65.060834 77.553672 77.480469 62.201172 77.480469 C 59.936072 77.480469 58.099609 75.649072 58.099609 73.388672 C 58.099609 71.128272 59.936072 69.294922 62.201172 69.294922 C 73.023372 69.294922 81.796875 60.540034 81.796875 49.740234 C 81.796875 47.479734 83.633337 45.648438 85.898438 45.648438 z M 38.505859 58.166016 C 40.770959 58.166016 42.605469 59.999366 42.605469 62.259766 C 42.605469 73.059566 51.378972 81.814453 62.201172 81.814453 C 64.466372 81.814453 66.302734 83.64585 66.302734 85.90625 C 66.302734 88.16675 64.466372 90 62.201172 90 C 46.848672 90 34.404297 77.580466 34.404297 62.259766 C 34.404297 59.999366 36.240759 58.166016 38.505859 58.166016 z " />
</svg>
