<?xml version="1.0" encoding="UTF-8" standalone="no"?>
<!-- Created with Inkscape (http://www.inkscape.org/) -->

<svg
   width="128.00002"
   height="127.99999"
   viewBox="0 0 33.866671 33.866665"
   version="1.1"
   id="svg1"
   inkscape:version="1.4.3 (0d15f75042, 2025-12-25)"
   sodipodi:docname="loft-symbolic.svg"
   xml:space="preserve"
   xmlns:inkscape="http://www.inkscape.org/namespaces/inkscape"
   xmlns:sodipodi="http://sodipodi.sourceforge.net/DTD/sodipodi-0.dtd"
   xmlns="http://www.w3.org/2000/svg"
   xmlns:svg="http://www.w3.org/2000/svg"><sodipodi:namedview
     id="namedview1"
     pagecolor="#ffffff"
     bordercolor="currentColor"
     borderopacity="0.25"
     inkscape:showpageshadow="2"
     inkscape:pageopacity="0.0"
     inkscape:pagecheckerboard="0"
     inkscape:deskcolor="#d1d1d1"
     inkscape:document-units="px"
     inkscape:zoom="4"
     inkscape:cx="89.375"
     inkscape:cy="74.5"
     inkscape:window-width="1624"
     inkscape:window-height="1131"
     inkscape:window-x="26"
     inkscape:window-y="23"
     inkscape:window-maximized="0"
     inkscape:current-layer="g1"
     showguides="true"><sodipodi:guide
       position="16.933333,41.089997"
       orientation="-1,0"
       id="guide1"
       inkscape:locked="false"
       inkscape:label=""
       inkscape:color="rgb(0,134,229)" /><sodipodi:guide
       position="24.90649,16.933331"
       orientation="0,1"
       id="guide2"
       inkscape:locked="false"
       inkscape:label=""
       inkscape:color="rgb(0,134,229)" /></sodipodi:namedview><defs
     id="defs1"><linearGradient
       id="paint0_linear_1502_1388"
       x1="127.742"
       y1="36.707"
       x2="127.742"
       y2="237.907"
       gradientUnits="userSpaceOnUse"><stop
         stop-color="#E5A375"
         id="stop9" /><stop
         offset="1"
         stop-color="#B85A1B"
         id="stop10" /></linearGradient><linearGradient
       id="paint1_linear_1502_1388"
       x1="83.1529"
       y1="58.1872"
       x2="148.201"
       y2="226.06"
       gradientUnits="userSpaceOnUse"><stop
         stop-color="#E5A375"
         id="stop11" /><stop
         offset="0.484375"
         stop-color="#D0763A"
         id="stop12" /><stop
         offset="1"
         stop-color="#B85A1B"
         id="stop13" /></linearGradient><linearGradient
       id="paint2_linear_1502_1388"
       x1="128.038"
       y1="44.2754"
       x2="128.038"
       y2="117.056"
       gradientUnits="userSpaceOnUse"><stop
         stop-color="#8C5F35"
         id="stop14" /><stop
         offset="1"
         stop-color="#8C5F35"
         stop-opacity="0.01"
         id="stop15" /></linearGradient><linearGradient
       id="paint3_linear_1502_1388"
       x1="127.813"
       y1="91.8765"
       x2="127.813"
       y2="189.935"
       gradientUnits="userSpaceOnUse"><stop
         stop-color="#8C4522"
         id="stop16" /><stop
         offset="1"
         stop-color="#DDA066"
         id="stop17" /></linearGradient><radialGradient
       id="paint4_radial_1502_1388"
       cx="0"
       cy="0"
       r="1"
       gradientUnits="userSpaceOnUse"
       gradientTransform="matrix(65.7048,0,0,63.7408,127.813,121.964)"><stop
         stop-color="#9F592F"
         id="stop18" /><stop
         offset="1"
         stop-color="#9F4917"
         id="stop19" /></radialGradient><linearGradient
       id="paint5_linear_1502_1388"
       x1="128.199"
       y1="17.707"
       x2="128.199"
       y2="115.336"
       gradientUnits="userSpaceOnUse"><stop
         stop-color="#F0E6D0"
         id="stop20" /><stop
         offset="1"
         stop-color="#D7BA8E"
         id="stop21" /></linearGradient></defs><g
     inkscape:label="Template"
     inkscape:groupmode="layer"
     id="layer1"
     transform="translate(-32.279167,-138.64166)"
     style="display:none"><circle
       cx="49.212509"
       cy="155.575"
       r="15.743801"
       id="circle2892"
       style="display:inline;opacity:0.2;fill:none;fill-opacity:1;stroke:currentColor;stroke-width:0.261937;stroke-linecap:butt;stroke-linejoin:miter;stroke-miterlimit:4;stroke-dasharray:none;stroke-dashoffset:0;stroke-opacity:1;marker:none;marker-start:none;marker-mid:none;marker-end:none;paint-order:normal;enable-background:new" /><rect
       ry="2.096508"
       rx="2.096508"
       y="141.94769"
       x="35.585205"
       height="27.254602"
       width="27.254602"
       id="rect2896"
       style="display:inline;opacity:0.2;fill:none;fill-opacity:1;stroke:currentColor;stroke-width:0.261937;stroke-linecap:butt;stroke-linejoin:miter;stroke-miterlimit:4;stroke-dasharray:none;stroke-dashoffset:0;stroke-opacity:1;marker:none;marker-start:none;marker-mid:none;marker-end:none;paint-order:normal;enable-background:new" /></g><g
     inkscape:groupmode="layer"
     id="layer2"
     inkscape:label="Icon"><g
       style="fill:none"
       id="g1"
       transform="matrix(0.12914987,0,0,0.12914987,0.25422483,0.31351816)"><path
         id="path1"
         style="fill:#000000;fill-opacity:1"
         d="M 66.48939 36.708931 C 47.35939 36.708931 32.610583 53.280317 32.610583 72.400317 L 32.610583 203.77022 C 32.610583 222.89022 47.35939 237.90911 66.48939 237.90911 L 188.98847 237.90911 C 208.11847 237.90911 222.87128 222.89022 222.87128 203.77022 L 222.87128 72.400317 C 222.87128 53.280317 208.11847 36.708931 188.98847 36.708931 L 66.48939 36.708931 z M 127.80895 91.878531 C 155.76895 91.878531 177.42078 114.71021 177.42078 141.03021 C 177.42078 166.13021 155.76895 189.94181 127.80895 189.94181 C 99.248951 189.94181 78.209128 166.13021 78.209128 141.03021 C 78.209128 114.11021 100.44895 91.878531 127.80895 91.878531 z " /><path
         opacity="0.2"
         d="M 188.99,36.71 H 66.49 c -18.5,0 -33.25,15.53 -33.85,34.02 v 4.23 C 33.24,57.07 47.99,41.54 66.49,41.54 h 122.5 c 18.5,0 33.25,15.53 33.85,33.42 V 70.73 C 222.24,52.24 207.49,36.71 188.99,36.71 Z"
         fill="#ffffff"
         id="path2"
         style="fill:#000000;fill-opacity:1" /><path
         opacity="0.3"
         d="m 32.61,200.74 v 3.03 c 0,19.12 14.75,34.14 33.88,34.14 h 122.5 c 19.13,0 33.88,-15.02 33.88,-34.14 v -3.03 c 0,16.94 -15.35,29 -31.68,29 H 67.09 c -17.53,0 -34.48,-12.66 -34.48,-29 z"
         fill="#202020"
         id="path3"
         style="fill:#000000;fill-opacity:1" /><path
         opacity="0.2"
         d="m 32.61,106.3 v 10.76 l 94.79,-62.02 96.07,62.02 V 106.3 L 128.6,44.28 Z"
         fill="url(#paint2_linear_1502_1388)"
         id="path5"
         style="fill:#000000;fill-opacity:1" /><path
         d="M 246.82,95.31 130.61,18.78 c -2.2,-1.4 -3.8,-1.4 -6,0 L 9.18,95.91 c -0.8,0.5 -0.9,1.6 -0.4,2.3 l 10.01,16.23 c 0.5,0.9 1.4,1 2.2,0.4 L 128,44.88 235.61,114.44 c 0.8,0.6 1.7,0.4 2.2,-0.4 l 10.01,-15.63 c 0.6,-1.1 0.3,-2.4 -1,-3.1 z"
         fill="url(#paint5_linear_1502_1388)"
         id="path8"
         style="fill:#000000;fill-opacity:1" /><path
         opacity="0.2"
         d="M 10.18,95.91 124.61,19.38 c 2.2,-1.4 3.8,-1.4 6,0 l 115.61,76.53 c 1,0.7 1.4,1.8 1,2.6 l 0.6,-0.9 c 0.6,-0.9 0.3,-2.2 -0.9,-2.9 L 130.71,18.78 c -2.2,-1.4 -3.8,-1.4 -6,0 L 9.18,95.91 c -0.7,0.5 -0.9,1.4 -0.6,2.1 0.2,-0.8 0.7,-1.6 1.6,-2.1 z"
         fill="#ffffff"
         id="path9"
         style="fill:#000000;fill-opacity:1" /></g></g></svg>
