<?xml version="1.0" encoding="UTF-8" standalone="no"?>
<svg
   width="127"
   height="127"
   version="1.1"
   id="svg4"
   sodipodi:docname="slack-symbolic.svg"
   inkscape:version="1.4.3 (0d15f75042, 2025-12-25)"
   xmlns:inkscape="http://www.inkscape.org/namespaces/inkscape"
   xmlns:sodipodi="http://sodipodi.sourceforge.net/DTD/sodipodi-0.dtd"
   xmlns="http://www.w3.org/2000/svg"
   xmlns:svg="http://www.w3.org/2000/svg">
  <defs
     id="defs4" />
  <sodipodi:namedview
     id="namedview4"
     pagecolor="#ffffff"
     bordercolor="#000000"
     borderopacity="0.25"
     inkscape:showpageshadow="2"
     inkscape:pageopacity="0.0"
     inkscape:pagecheckerboard="0"
     inkscape:deskcolor="#d1d1d1"
     inkscape:zoom="5.023622"
     inkscape:cx="63.59953"
     inkscape:cy="64.694357"
     inkscape:window-width="1536"
     inkscape:window-height="891"
     inkscape:window-x="0"
     inkscape:window-y="0"
     inkscape:window-maximized="1"
     inkscape:current-layer="svg4" />
  <path
     d="M27.2 80c0 7.3-5.9 13.2-13.2 13.2C6.7 93.2.8 87.3.8 80c0-7.3 5.9-13.2 13.2-13.2h13.2V80zm6.6 0c0-7.3 5.9-13.2 13.2-13.2 7.3 0 13.2 5.9 13.2 13.2v33c0 7.3-5.9 13.2-13.2 13.2-7.3 0-13.2-5.9-13.2-13.2V80z"
     fill="#E01E5A"
     id="path1"
     style="fill:#000000;fill-opacity:1" />
  <path
     d="M47 27c-7.3 0-13.2-5.9-13.2-13.2C33.8 6.5 39.7.6 47 .6c7.3 0 13.2 5.9 13.2 13.2V27H47zm0 6.7c7.3 0 13.2 5.9 13.2 13.2 0 7.3-5.9 13.2-13.2 13.2H13.9C6.6 60.1.7 54.2.7 46.9c0-7.3 5.9-13.2 13.2-13.2H47z"
     fill="#36C5F0"
     id="path2"
     style="fill:#000000;fill-opacity:1" />
  <path
     d="M99.9 46.9c0-7.3 5.9-13.2 13.2-13.2 7.3 0 13.2 5.9 13.2 13.2 0 7.3-5.9 13.2-13.2 13.2H99.9V46.9zm-6.6 0c0 7.3-5.9 13.2-13.2 13.2-7.3 0-13.2-5.9-13.2-13.2V13.8C66.9 6.5 72.8.6 80.1.6c7.3 0 13.2 5.9 13.2 13.2v33.1z"
     fill="#2EB67D"
     id="path3"
     style="fill:#000000;fill-opacity:1" />
  <path
     d="M80.1 99.8c7.3 0 13.2 5.9 13.2 13.2 0 7.3-5.9 13.2-13.2 13.2-7.3 0-13.2-5.9-13.2-13.2V99.8h13.2zm0-6.6c-7.3 0-13.2-5.9-13.2-13.2 0-7.3 5.9-13.2 13.2-13.2h33.1c7.3 0 13.2 5.9 13.2 13.2 0 7.3-5.9 13.2-13.2 13.2H80.1z"
     fill="#ECB22E"
     id="path4"
     style="fill:#000000;fill-opacity:1" />
</svg>
