<?xml version="1.0" encoding="UTF-8" standalone="no"?>
<svg
   viewBox="0 0 100 100"
   version="1.1"
   id="svg5"
   sodipodi:docname="talk-symbolic.svg"
   inkscape:version="1.4.4 (dcaf3e7d9e, 2026-05-05)"
   xmlns:inkscape="http://www.inkscape.org/namespaces/inkscape"
   xmlns:sodipodi="http://sodipodi.sourceforge.net/DTD/sodipodi-0.dtd"
   xmlns="http://www.w3.org/2000/svg"
   xmlns:svg="http://www.w3.org/2000/svg">
  <defs
     id="defs5" />
  <sodipodi:namedview
     id="namedview5"
     pagecolor="#ffffff"
     bordercolor="#000000"
     borderopacity="0.25"
     inkscape:showpageshadow="2"
     inkscape:pageopacity="0.0"
     inkscape:pagecheckerboard="0"
     inkscape:deskcolor="#d1d1d1"
     inkscape:zoom="5.7498147"
     inkscape:cx="16.348353"
     inkscape:cy="51.47992"
     inkscape:window-width="1728"
     inkscape:window-height="1011"
     inkscape:window-x="0"
     inkscape:window-y="0"
     inkscape:window-maximized="1"
     inkscape:current-layer="svg5" />
  <!-- SVG created with Arrow, by QuiverAI (https://quiver.ai) -->
  <style
     type="text/css"
     id="style1">.cls-0 {fill:url(#SVGID_1_);}
.cls-1 {fill:#FFFFFF;}</style>
  <linearGradient
     id="SVGID_1_"
     x1="14.64"
     x2="85.36"
     y1="85.36"
     y2="14.64"
     gradientUnits="userSpaceOnUse">
    <stop
       stop-color="#0785CC"
       offset="0"
       id="stop1" />
    <stop
       stop-color="#18A9FA"
       offset="1"
       id="stop2" />
  </linearGradient>
  <path
     id="path2"
     style="fill:#000000;fill-opacity:1"
     class="cls-0"
     d="M 50 0 C 22.4 0 0 22.7 0 50 C 0 77.3 21.600391 100 49.900391 100 C 78.200391 100 100 77.4 100 50 C 100 22.6 77.5 0 50 0 z M 49.900391 25.400391 C 62.900391 25.400391 74.5 35.6 74.5 50 C 74.5 54.3 73.399219 58.2 71.199219 62 L 73 67 C 73.8 69.3 75.6 74.800781 73 74.800781 C 70.6 74.800781 66.399609 72.699609 62.599609 71.099609 C 59.199609 73.099609 55.100391 74.699219 49.900391 74.699219 C 36.900391 74.699219 25.400391 63.9 25.400391 50 C 25.400391 37.6 35.600391 25.400391 49.900391 25.400391 z M 50 34.699219 C 42.1 34.699219 34.900391 41.000391 34.900391 49.900391 C 34.900391 57.300391 40.300391 64.900391 49.900391 64.900391 C 58.400391 64.900391 65.099609 58.4 65.099609 50 C 65.099609 42.1 59 34.699219 50 34.699219 z " />
</svg>
